<svg width="100%" height="100%" viewBox="0 0 204 96" version="1.1" xmlns="http://www.w3.org/2000/svg" xmlns:xlink="http://www.w3.org/1999/xlink">
    <title>logo-3</title>
    <style>
      /* 控制描边的动画，从左到右逐渐进行 */
      .svg-elem {
        stroke-dasharray: 1000;
        stroke-dashoffset: 1000;
        stroke-width: 1; /* 调整描边粗细，设置为较细的值 */
        fill: transparent;
        stroke: #fff;
        stroke-linejoin: round;
        stroke-linecap: round;
        animation: draw 2s linear forwards, fill-color 2s linear forwards;
      }

      /* 描边动画，模拟从左到右的描边效果 */
      @keyframes draw {
        from {
          stroke-dashoffset: 1000;
        }
        to {
          stroke-dashoffset: 0;
        }
      }

      /* 填充颜色的动画，与描边同步，从左到右进行 */
      @keyframes fill-color {
        0% {
          fill: transparent;
        }
        100% {
          fill: #fff;
        }
      }

      /* 背景的渐变 */
      #矩形 {
        fill: #4999EF;
      }
    </style>

    <g id="页面-1" stroke="none" stroke-width="1" fill="none" fill-rule="evenodd">
        <g id="logo-3">
            <!-- 背景填充 -->
            <rect id="矩形" x="0" y="0" width="204" height="96" rx="48"></rect>

            <!-- UIED 使用从左到右的描边和填充动画 -->
            <g id="UIED" transform="translate(26, 24)">
                <!-- 从左到右进行描边和填充 -->
                <path d="M46.4231047,0 L46.4231047,0 L41.6490975,0 C40.1858002,0 38.8962696,0.489042676 37.7805054,1.46712803 C36.6647413,2.44521338 35.9971119,3.69088812 35.7776173,5.20415225 L32.4851986,28.6228374 C32.0462094,32.0553633 30.7841155,34.6758939 28.698917,36.4844291 C26.6137184,38.2560554 23.9614922,39.1418685 20.7422383,39.1418685 C17.5961492,39.1418685 15.0536703,38.3114187 13.1148014,36.650519 C11.1393502,34.9896194 10.1516245,32.5351788 10.1516245,29.2871972 C10.1516245,28.5121107 10.2064982,27.6816609 10.3162455,26.7958478 L14.1025271,0 L9.27364621,0 C7.81034898,0 6.5299639,0.479815456 5.43249097,1.43944637 C4.33501805,2.39907728 3.65824308,3.6355248 3.40216606,5.14878893 L0.274368231,26.9065744 C0.091456077,28.1983852 0,29.4532872 0,30.6712803 C0,36.0599769 1.79253911,40.2860438 5.37761733,43.349481 C8.96269555,46.3760092 14.0842359,47.8892734 20.7422383,47.8892734 C33.4363418,47.8892734 40.6247894,41.7439446 42.3075812,29.4532872 L46.4231047,0 Z" class="svg-elem"></path>
                
                <path d="M44.6122744,48 L44.6122744,48 L50.7032491,4.42906574 C50.8861613,3.1372549 51.4623345,2.07612457 52.431769,1.24567474 C53.4012034,0.415224913 54.5261131,0 55.8064982,0 L61.568231,0 C61.568231,0 61.568231,0 61.568231,0 C61.568231,0 61.568231,0 61.568231,0 L55.5870036,42.7958478 C55.367509,44.3091119 54.6998797,45.5547866 53.5841155,46.532872 C52.4683514,47.5109573 51.1605295,48 49.6606498,48 L44.6122744,48 Z" class="svg-elem"></path>
                
                <path d="M63.1595668,48 L63.1595668,48 L68.9761733,6.58823529 C69.2688327,4.66897347 70.1193742,3.0911188 71.5277978,1.85467128 C72.9362214,0.61822376 74.5915764,0 76.4938628,0 L105.083032,0 L104.58917,3.48788927 C104.44284,4.44752018 104.022142,5.23183391 103.327076,5.84083045 C102.63201,6.44982699 101.827196,6.75432526 100.912635,6.75432526 L79.2375451,6.75432526 L77.5364621,19.1557093 L99.6505415,19.1557093 L98.5530686,27.017301 L76.4389892,27.017301 L74.4086643,40.1937716 L99.4859206,40.1937716 L99.2115523,42.9065744 C98.9920578,44.3829296 98.3518652,45.6009227 97.2909747,46.5605536 C96.2300842,47.5201845 94.9862816,48 93.5595668,48 L63.1595668,48 Z" class="svg-elem"></path>
                
                <path d="M110.954513,5.31487889 L110.954513,5.31487889 L105.083032,47.9446367 L129.556679,47.9446367 C135.922022,47.9446367 141.244765,45.6193772 145.52491,40.9688581 C149.841637,36.2814302 152,30.4129181 152,23.3633218 C152,16.4982699 149.89651,10.88812 145.689531,6.53287197 C141.482551,2.21453287 135.409868,0.0553633218 127.47148,0.0553633218 L116.93574,0.0553633218 C115.43586,0.0553633218 114.128039,0.544405998 113.012274,1.52249135 C111.89651,2.5005767 111.21059,3.76470588 110.954513,5.31487889 Z M120.667148,8.08304498 L120.667148,8.08304498 L125.550903,8.08304498 C130.452948,8.08304498 134.348977,9.48558247 137.238989,12.2906574 C140.129001,15.0957324 141.574007,18.7497116 141.574007,23.2525952 C141.574007,28.1245675 140.165584,32.1291811 137.348736,35.266436 C134.568472,38.4036909 130.709025,39.9723183 125.770397,39.9723183 L116.277256,39.9723183 L120.667148,8.08304498 Z" class="svg-elem"></path>
            </g>
        </g>
    </g>
</svg>
